<svg xmlns="http://www.w3.org/2000/svg" viewBox="0 0 64 64">
  <rect width="64" height="64" rx="14" fill="#11110f" />
  <path d="M8 35h48v8H8z" fill="#f5e6c8" opacity=".16" />
  <path d="M28 8h8v48h-8z" fill="#f5e6c8" opacity=".16" />
  <path
    d="M17 36.5 21 25c.8-2.2 2.9-3.6 5.2-3.6h11.6c2.3 0 4.4 1.4 5.2 3.6l4 11.5v10.2c0 1.3-1 2.3-2.3 2.3h-3.4c-1.3 0-2.3-1-2.3-2.3V45H25v1.7c0 1.3-1 2.3-2.3 2.3h-3.4c-1.3 0-2.3-1-2.3-2.3z"
    fill="#ff5a36"
  />
  <path d="m24 27-2.3 7h20.6L40 27a2.4 2.4 0 0 0-2.3-1.6H26.3A2.4 2.4 0 0 0 24 27Z" fill="#191b18" />
  <circle cx="22" cy="39.5" r="2.3" fill="#d7ff3f" />
  <circle cx="42" cy="39.5" r="2.3" fill="#d7ff3f" />
  <path d="M18 17h9l5 4-5 4h-9Z" fill="#d7ff3f" />
</svg>
